<svg width="20" height="22" viewBox="0 0 20 22" fill="none" xmlns="http://www.w3.org/2000/svg">
<path d="M5.41663 6.41663L5.41663 5.33329C5.41663 2.94006 7.35673 0.99996 9.74996 0.99996V0.99996C12.1432 0.99996 14.0833 2.94006 14.0833 5.33329L14.0833 6.41663" stroke="#CACBCC" stroke-width="2" stroke-linecap="round"/>
<path fill-rule="evenodd" clip-rule="evenodd" d="M0.585786 5.91916C0 6.50495 0 7.44776 0 9.33337V13.5834C0 17.3546 0 19.2402 1.17157 20.4118C2.34315 21.5834 4.22876 21.5834 8 21.5834H11.5C15.2712 21.5834 17.1569 21.5834 18.3284 20.4118C19.5 19.2402 19.5 17.3546 19.5 13.5834V9.33337C19.5 7.44776 19.5 6.50495 18.9142 5.91916C18.3284 5.33337 17.3856 5.33337 15.5 5.33337H4C2.11438 5.33337 1.17157 5.33337 0.585786 5.91916ZM7.5 10.75C7.5 10.1978 7.05228 9.75004 6.5 9.75004C5.94772 9.75004 5.5 10.1978 5.5 10.75V12.9167C5.5 13.469 5.94772 13.9167 6.5 13.9167C7.05228 13.9167 7.5 13.469 7.5 12.9167V10.75ZM14 10.75C14 10.1978 13.5523 9.75004 13 9.75004C12.4477 9.75004 12 10.1978 12 10.75V12.9167C12 13.469 12.4477 13.9167 13 13.9167C13.5523 13.9167 14 13.469 14 12.9167V10.75Z" fill="#CACBCC"/>
</svg>
